<svg width="1440" height="778" viewBox="0 0 1440 778" fill="none" xmlns="http://www.w3.org/2000/svg">
<rect width="1440" height="900" rx="20" fill="#282828"/>
<g clip-path="url(#clip0_142_1274)">
<rect width="1440" height="900" fill="#09090A"/>
<g opacity="0.5">
<rect x="80" y="188" width="1280" height="124" rx="8" fill="#27272A"/>
<rect x="80" y="344" width="402.286" height="310" rx="8" fill="#27272A"/>
<rect x="80" y="686" width="402.286" height="310" rx="8" fill="#27272A"/>
<rect x="518.857" y="686" width="402.286" height="310" rx="8" fill="#27272A"/>
<rect x="518.857" y="344" width="402.286" height="310" rx="8" fill="#27272A"/>
<rect x="957.714" y="344" width="402.286" height="310" rx="8" fill="#27272A"/>
</g>
<rect width="1440" height="140" fill="#27272A"/>
<rect x="80" y="38" width="256" height="64" rx="9.14286" fill="#3F3F46"/>
<circle cx="1320" cy="70" r="40" fill="#3F3F46"/>
<rect x="508" y="58" width="120" height="24" rx="12" fill="#3F3F46"/>
<rect x="660" y="58" width="120" height="24" rx="12" fill="#3F3F46"/>
<rect x="812" y="58" width="120" height="24" rx="12" fill="#3F3F46"/>
<g filter="url(#filter0_b_142_1274)">
<rect width="1440" height="900" fill="black" fill-opacity="0.5"/>
</g>
<g filter="url(#filter1_d_142_1274)">
<path d="M752 181.987C752 168.739 762.739 158 775.987 158H1231.74C1244.99 158 1255.73 168.739 1255.73 181.987V529.799C1255.73 543.046 1244.99 553.786 1231.74 553.786H775.987C762.739 553.786 752 543.046 752 529.799V181.987Z" fill="#18181B"/>
<path d="M871.792 210.987H864.733V189.181H872.016C874.153 189.181 875.987 189.617 877.521 190.49C879.054 191.356 880.229 192.602 881.045 194.228C881.869 195.846 882.28 197.787 882.28 200.052C882.28 202.323 881.865 204.275 881.034 205.908C880.211 207.541 879.018 208.797 877.457 209.677C875.895 210.55 874.007 210.987 871.792 210.987ZM868.023 208.112H871.611C873.272 208.112 874.653 207.8 875.753 207.175C876.853 206.543 877.677 205.631 878.223 204.439C878.77 203.239 879.043 201.777 879.043 200.052C879.043 198.341 878.77 196.89 878.223 195.697C877.684 194.504 876.878 193.599 875.806 192.982C874.735 192.364 873.404 192.056 871.814 192.056H868.023V208.112ZM893.165 211.317C891.553 211.317 890.166 210.973 889.002 210.284C887.845 209.589 886.95 208.613 886.318 207.356C885.694 206.093 885.381 204.613 885.381 202.916C885.381 201.241 885.694 199.764 886.318 198.487C886.95 197.209 887.83 196.212 888.959 195.495C890.095 194.778 891.422 194.419 892.941 194.419C893.864 194.419 894.758 194.572 895.624 194.877C896.49 195.182 897.268 195.662 897.956 196.315C898.645 196.968 899.188 197.816 899.585 198.859C899.983 199.896 900.182 201.156 900.182 202.639V203.768H887.181V201.383H897.062C897.062 200.545 896.891 199.803 896.551 199.157C896.21 198.504 895.731 197.99 895.113 197.614C894.503 197.237 893.786 197.049 892.962 197.049C892.068 197.049 891.287 197.269 890.62 197.709C889.96 198.142 889.449 198.71 889.087 199.413C888.732 200.109 888.554 200.865 888.554 201.681V203.544C888.554 204.637 888.746 205.567 889.129 206.334C889.52 207.101 890.063 207.686 890.758 208.091C891.454 208.488 892.267 208.687 893.197 208.687C893.8 208.687 894.35 208.602 894.847 208.432C895.344 208.254 895.773 207.991 896.135 207.644C896.497 207.296 896.774 206.866 896.966 206.355L899.979 206.898C899.738 207.786 899.305 208.563 898.68 209.23C898.063 209.89 897.285 210.405 896.348 210.774C895.419 211.136 894.357 211.317 893.165 211.317ZM903.714 210.987V194.632H906.898V210.987H903.714ZM905.322 192.109C904.768 192.109 904.292 191.924 903.895 191.555C903.505 191.179 903.309 190.732 903.309 190.213C903.309 189.688 903.505 189.241 903.895 188.872C904.292 188.496 904.768 188.308 905.322 188.308C905.875 188.308 906.347 188.496 906.738 188.872C907.135 189.241 907.334 189.688 907.334 190.213C907.334 190.732 907.135 191.179 906.738 191.555C906.347 191.924 905.875 192.109 905.322 192.109ZM913.693 194.632L917.303 201L920.944 194.632H924.426L919.326 202.81L924.469 210.987H920.987L917.303 204.875L913.63 210.987H910.137L915.227 202.81L910.201 194.632H913.693ZM934.1 211.317C932.488 211.317 931.101 210.973 929.936 210.284C928.779 209.589 927.885 208.613 927.253 207.356C926.629 206.093 926.316 204.613 926.316 202.916C926.316 201.241 926.629 199.764 927.253 198.487C927.885 197.209 928.765 196.212 929.894 195.495C931.03 194.778 932.357 194.419 933.876 194.419C934.799 194.419 935.693 194.572 936.559 194.877C937.425 195.182 938.203 195.662 938.891 196.315C939.58 196.968 940.123 197.816 940.52 198.859C940.918 199.896 941.116 201.156 941.116 202.639V203.768H928.116V201.383H937.997C937.997 200.545 937.826 199.803 937.486 199.157C937.145 198.504 936.666 197.99 936.048 197.614C935.438 197.237 934.721 197.049 933.897 197.049C933.003 197.049 932.222 197.269 931.555 197.709C930.895 198.142 930.384 198.71 930.022 199.413C929.667 200.109 929.489 200.865 929.489 201.681V203.544C929.489 204.637 929.681 205.567 930.064 206.334C930.455 207.101 930.998 207.686 931.693 208.091C932.389 208.488 933.202 208.687 934.132 208.687C934.735 208.687 935.285 208.602 935.782 208.432C936.279 208.254 936.708 207.991 937.07 207.644C937.432 207.296 937.709 206.866 937.901 206.355L940.914 206.898C940.673 207.786 940.24 208.563 939.615 209.23C938.998 209.89 938.22 210.405 937.283 210.774C936.353 211.136 935.292 211.317 934.1 211.317ZM964.839 198.625L961.954 199.136C961.833 198.767 961.642 198.416 961.379 198.082C961.123 197.748 960.776 197.475 960.335 197.262C959.895 197.049 959.345 196.943 958.685 196.943C957.784 196.943 957.031 197.145 956.428 197.55C955.824 197.947 955.523 198.462 955.523 199.094C955.523 199.64 955.725 200.08 956.13 200.414C956.534 200.748 957.187 201.021 958.089 201.234L960.687 201.83C962.192 202.178 963.313 202.714 964.051 203.438C964.79 204.162 965.159 205.102 965.159 206.259C965.159 207.239 964.875 208.112 964.307 208.879C963.746 209.638 962.962 210.235 961.954 210.668C960.953 211.101 959.792 211.317 958.472 211.317C956.641 211.317 955.146 210.927 953.989 210.146C952.832 209.358 952.123 208.24 951.86 206.792L954.937 206.323C955.129 207.125 955.523 207.732 956.119 208.144C956.715 208.549 957.493 208.751 958.451 208.751C959.494 208.751 960.328 208.535 960.953 208.102C961.578 207.661 961.89 207.125 961.89 206.494C961.89 205.983 961.698 205.553 961.315 205.205C960.939 204.858 960.36 204.595 959.579 204.417L956.811 203.811C955.285 203.463 954.156 202.909 953.425 202.149C952.701 201.39 952.339 200.428 952.339 199.264C952.339 198.299 952.609 197.454 953.148 196.73C953.688 196.006 954.433 195.441 955.384 195.037C956.335 194.625 957.425 194.419 958.653 194.419C960.421 194.419 961.812 194.803 962.827 195.569C963.842 196.329 964.513 197.347 964.839 198.625ZM975.708 211.317C974.097 211.317 972.709 210.973 971.545 210.284C970.388 209.589 969.493 208.613 968.862 207.356C968.237 206.093 967.925 204.613 967.925 202.916C967.925 201.241 968.237 199.764 968.862 198.487C969.493 197.209 970.374 196.212 971.502 195.495C972.638 194.778 973.965 194.419 975.484 194.419C976.407 194.419 977.302 194.572 978.168 194.877C979.034 195.182 979.811 195.662 980.499 196.315C981.188 196.968 981.731 197.816 982.129 198.859C982.526 199.896 982.725 201.156 982.725 202.639V203.768H969.724V201.383H979.605C979.605 200.545 979.435 199.803 979.094 199.157C978.753 198.504 978.274 197.99 977.657 197.614C977.046 197.237 976.329 197.049 975.506 197.049C974.611 197.049 973.83 197.269 973.163 197.709C972.503 198.142 971.992 198.71 971.63 199.413C971.275 200.109 971.098 200.865 971.098 201.681V203.544C971.098 204.637 971.289 205.567 971.673 206.334C972.063 207.101 972.606 207.686 973.302 208.091C973.997 208.488 974.81 208.687 975.74 208.687C976.343 208.687 976.893 208.602 977.39 208.432C977.887 208.254 978.317 207.991 978.679 207.644C979.041 207.296 979.318 206.866 979.509 206.355L982.522 206.898C982.281 207.786 981.848 208.563 981.223 209.23C980.606 209.89 979.829 210.405 978.892 210.774C977.962 211.136 976.901 211.317 975.708 211.317ZM996.617 204.204V194.632H999.812V210.987H996.681V208.155H996.511C996.135 209.028 995.531 209.755 994.701 210.338C993.877 210.912 992.852 211.2 991.624 211.2C990.573 211.2 989.643 210.969 988.834 210.508C988.032 210.039 987.4 209.347 986.939 208.432C986.484 207.516 986.257 206.384 986.257 205.035V194.632H989.441V204.652C989.441 205.766 989.75 206.653 990.367 207.314C990.985 207.974 991.787 208.304 992.773 208.304C993.37 208.304 993.962 208.155 994.552 207.857C995.148 207.558 995.641 207.108 996.032 206.504C996.429 205.901 996.624 205.134 996.617 204.204ZM1019.81 194.632V197.188H1010.57V194.632H1019.81ZM1013.1 210.987V192.737C1013.1 191.715 1013.32 190.867 1013.77 190.192C1014.22 189.511 1014.81 189.003 1015.55 188.67C1016.29 188.329 1017.09 188.158 1017.96 188.158C1018.59 188.158 1019.14 188.212 1019.59 188.318C1020.05 188.418 1020.39 188.51 1020.61 188.595L1019.86 191.172C1019.71 191.129 1019.52 191.079 1019.29 191.023C1019.05 190.959 1018.77 190.927 1018.43 190.927C1017.66 190.927 1017.11 191.119 1016.77 191.502C1016.45 191.885 1016.28 192.439 1016.28 193.163V210.987H1013.1ZM1029.5 211.317C1027.89 211.317 1026.5 210.973 1025.33 210.284C1024.18 209.589 1023.28 208.613 1022.65 207.356C1022.03 206.093 1021.71 204.613 1021.71 202.916C1021.71 201.241 1022.03 199.764 1022.65 198.487C1023.28 197.209 1024.16 196.212 1025.29 195.495C1026.43 194.778 1027.75 194.419 1029.27 194.419C1030.2 194.419 1031.09 194.572 1031.96 194.877C1032.82 195.182 1033.6 195.662 1034.29 196.315C1034.98 196.968 1035.52 197.816 1035.92 198.859C1036.32 199.896 1036.51 201.156 1036.51 202.639V203.768H1023.51V201.383H1033.39C1033.39 200.545 1033.22 199.803 1032.88 199.157C1032.54 198.504 1032.06 197.99 1031.45 197.614C1030.84 197.237 1030.12 197.049 1029.29 197.049C1028.4 197.049 1027.62 197.269 1026.95 197.709C1026.29 198.142 1025.78 198.71 1025.42 199.413C1025.06 200.109 1024.89 200.865 1024.89 201.681V203.544C1024.89 204.637 1025.08 205.567 1025.46 206.334C1025.85 207.101 1026.4 207.686 1027.09 208.091C1027.79 208.488 1028.6 208.687 1029.53 208.687C1030.13 208.687 1030.68 208.602 1031.18 208.432C1031.68 208.254 1032.11 207.991 1032.47 207.644C1032.83 207.296 1033.11 206.866 1033.3 206.355L1036.31 206.898C1036.07 207.786 1035.64 208.563 1035.01 209.23C1034.4 209.89 1033.62 210.405 1032.68 210.774C1031.75 211.136 1030.69 211.317 1029.5 211.317ZM1047.1 211.317C1045.48 211.317 1044.1 210.973 1042.93 210.284C1041.77 209.589 1040.88 208.613 1040.25 207.356C1039.62 206.093 1039.31 204.613 1039.31 202.916C1039.31 201.241 1039.62 199.764 1040.25 198.487C1040.88 197.209 1041.76 196.212 1042.89 195.495C1044.03 194.778 1045.35 194.419 1046.87 194.419C1047.79 194.419 1048.69 194.572 1049.55 194.877C1050.42 195.182 1051.2 195.662 1051.89 196.315C1052.58 196.968 1053.12 197.816 1053.52 198.859C1053.91 199.896 1054.11 201.156 1054.11 202.639V203.768H1041.11V201.383H1050.99C1050.99 200.545 1050.82 199.803 1050.48 199.157C1050.14 198.504 1049.66 197.99 1049.04 197.614C1048.43 197.237 1047.72 197.049 1046.89 197.049C1046 197.049 1045.22 197.269 1044.55 197.709C1043.89 198.142 1043.38 198.71 1043.02 199.413C1042.66 200.109 1042.48 200.865 1042.48 201.681V203.544C1042.48 204.637 1042.68 205.567 1043.06 206.334C1043.45 207.101 1043.99 207.686 1044.69 208.091C1045.38 208.488 1046.2 208.687 1047.13 208.687C1047.73 208.687 1048.28 208.602 1048.78 208.432C1049.27 208.254 1049.7 207.991 1050.07 207.644C1050.43 207.296 1050.7 206.866 1050.9 206.355L1053.91 206.898C1053.67 207.786 1053.24 208.563 1052.61 209.23C1051.99 209.89 1051.22 210.405 1050.28 210.774C1049.35 211.136 1048.29 211.317 1047.1 211.317ZM1063.77 211.306C1062.45 211.306 1061.27 210.969 1060.23 210.295C1059.2 209.613 1058.39 208.645 1057.8 207.388C1057.22 206.125 1056.93 204.609 1056.93 202.842C1056.93 201.074 1057.23 199.562 1057.81 198.306C1058.41 197.049 1059.23 196.087 1060.26 195.42C1061.3 194.753 1062.47 194.419 1063.79 194.419C1064.8 194.419 1065.62 194.59 1066.24 194.93C1066.86 195.264 1067.34 195.654 1067.68 196.102C1068.03 196.549 1068.3 196.943 1068.49 197.283H1068.69V189.181H1071.87V210.987H1068.76V208.442H1068.49C1068.3 208.79 1068.03 209.188 1067.66 209.635C1067.31 210.082 1066.82 210.472 1066.19 210.806C1065.57 211.14 1064.76 211.306 1063.77 211.306ZM1064.47 208.591C1065.39 208.591 1066.16 208.35 1066.79 207.867C1067.43 207.377 1067.91 206.7 1068.24 205.834C1068.57 204.968 1068.74 203.96 1068.74 202.81C1068.74 201.674 1068.58 200.68 1068.25 199.828C1067.92 198.976 1067.44 198.313 1066.81 197.837C1066.18 197.362 1065.4 197.124 1064.47 197.124C1063.51 197.124 1062.71 197.372 1062.07 197.869C1061.43 198.366 1060.95 199.044 1060.63 199.903C1060.31 200.762 1060.15 201.731 1060.15 202.81C1060.15 203.903 1060.31 204.886 1060.64 205.759C1060.96 206.632 1061.45 207.324 1062.08 207.835C1062.73 208.339 1063.53 208.591 1064.47 208.591ZM1076.67 210.987V189.181H1079.85V197.283H1080.04C1080.23 196.943 1080.49 196.549 1080.84 196.102C1081.19 195.654 1081.67 195.264 1082.29 194.93C1082.91 194.59 1083.72 194.419 1084.74 194.419C1086.06 194.419 1087.24 194.753 1088.27 195.42C1089.31 196.087 1090.12 197.049 1090.71 198.306C1091.31 199.562 1091.61 201.074 1091.61 202.842C1091.61 204.609 1091.31 206.125 1090.72 207.388C1090.13 208.645 1089.33 209.613 1088.3 210.295C1087.27 210.969 1086.09 211.306 1084.77 211.306C1083.78 211.306 1082.97 211.14 1082.33 210.806C1081.71 210.472 1081.22 210.082 1080.86 209.635C1080.51 209.188 1080.24 208.79 1080.04 208.442H1079.78V210.987H1076.67ZM1079.79 202.81C1079.79 203.96 1079.96 204.968 1080.29 205.834C1080.62 206.7 1081.11 207.377 1081.74 207.867C1082.37 208.35 1083.14 208.591 1084.06 208.591C1085.01 208.591 1085.8 208.339 1086.44 207.835C1087.08 207.324 1087.57 206.632 1087.89 205.759C1088.23 204.886 1088.39 203.903 1088.39 202.81C1088.39 201.731 1088.23 200.762 1087.9 199.903C1087.58 199.044 1087.1 198.366 1086.45 197.869C1085.82 197.372 1085.02 197.124 1084.06 197.124C1083.14 197.124 1082.35 197.362 1081.72 197.837C1081.08 198.313 1080.61 198.976 1080.28 199.828C1079.95 200.68 1079.79 201.674 1079.79 202.81ZM1099.94 211.349C1098.91 211.349 1097.97 211.157 1097.13 210.774C1096.29 210.384 1095.63 209.819 1095.14 209.081C1094.66 208.343 1094.42 207.438 1094.42 206.366C1094.42 205.443 1094.59 204.684 1094.95 204.087C1095.3 203.491 1095.78 203.019 1096.39 202.671C1096.99 202.323 1097.66 202.061 1098.41 201.883C1099.15 201.706 1099.91 201.571 1100.69 201.479C1101.67 201.365 1102.46 201.273 1103.07 201.202C1103.68 201.124 1104.13 201 1104.4 200.829C1104.68 200.659 1104.82 200.382 1104.82 199.999V199.924C1104.82 198.994 1104.56 198.274 1104.03 197.763C1103.51 197.252 1102.74 196.996 1101.71 196.996C1100.64 196.996 1099.79 197.234 1099.18 197.709C1098.56 198.178 1098.14 198.7 1097.91 199.275L1094.92 198.593C1095.27 197.599 1095.79 196.797 1096.47 196.187C1097.16 195.569 1097.95 195.122 1098.85 194.845C1099.74 194.561 1100.68 194.419 1101.67 194.419C1102.32 194.419 1103.01 194.497 1103.74 194.654C1104.48 194.803 1105.17 195.079 1105.81 195.484C1106.45 195.889 1106.98 196.467 1107.4 197.22C1107.81 197.965 1108.01 198.934 1108.01 200.126V210.987H1104.9V208.751H1104.78C1104.57 209.163 1104.26 209.567 1103.85 209.965C1103.44 210.362 1102.91 210.692 1102.26 210.955C1101.62 211.218 1100.84 211.349 1099.94 211.349ZM1100.63 208.794C1101.51 208.794 1102.27 208.62 1102.89 208.272C1103.52 207.924 1104 207.47 1104.33 206.909C1104.66 206.341 1104.83 205.734 1104.83 205.088V202.98C1104.72 203.094 1104.5 203.2 1104.17 203.299C1103.85 203.392 1103.48 203.473 1103.07 203.544C1102.66 203.608 1102.26 203.669 1101.87 203.725C1101.48 203.775 1101.15 203.818 1100.89 203.853C1100.27 203.931 1099.71 204.062 1099.2 204.247C1098.69 204.432 1098.29 204.698 1097.98 205.046C1097.68 205.386 1097.54 205.841 1097.54 206.409C1097.54 207.196 1097.83 207.793 1098.41 208.197C1098.99 208.595 1099.73 208.794 1100.63 208.794ZM1119.14 211.317C1117.56 211.317 1116.2 210.959 1115.05 210.242C1113.92 209.518 1113.04 208.52 1112.43 207.25C1111.82 205.979 1111.52 204.524 1111.52 202.884C1111.52 201.223 1111.83 199.757 1112.46 198.487C1113.08 197.209 1113.96 196.212 1115.1 195.495C1116.23 194.778 1117.57 194.419 1119.11 194.419C1120.35 194.419 1121.46 194.65 1122.43 195.111C1123.4 195.566 1124.19 196.205 1124.79 197.028C1125.39 197.851 1125.75 198.813 1125.86 199.913H1122.76C1122.59 199.147 1122.2 198.487 1121.59 197.933C1120.99 197.379 1120.18 197.102 1119.16 197.102C1118.28 197.102 1117.5 197.337 1116.83 197.805C1116.17 198.267 1115.66 198.927 1115.29 199.786C1114.92 200.638 1114.73 201.645 1114.73 202.81C1114.73 204.002 1114.92 205.031 1115.28 205.897C1115.64 206.763 1116.15 207.434 1116.81 207.91C1117.48 208.385 1118.26 208.623 1119.16 208.623C1119.77 208.623 1120.31 208.513 1120.8 208.293C1121.3 208.066 1121.72 207.743 1122.05 207.324C1122.39 206.905 1122.63 206.401 1122.76 205.812H1125.86C1125.75 206.87 1125.4 207.814 1124.83 208.645C1124.25 209.475 1123.48 210.128 1122.52 210.604C1121.56 211.079 1120.43 211.317 1119.14 211.317ZM1132.19 205.44L1132.17 201.553H1132.73L1139.24 194.632H1143.05L1135.62 202.511H1135.12L1132.19 205.44ZM1129.27 210.987V189.181H1132.45V210.987H1129.27ZM1139.59 210.987L1133.74 203.214L1135.93 200.989L1143.5 210.987H1139.59Z" fill="#F4F4F5"/>
<g clip-path="url(#clip1_142_1274)">
<path d="M775.987 278.042C775.987 271.418 781.357 266.049 787.981 266.049H908.007C914.63 266.049 920 271.418 920 278.042V421.964C920 428.588 914.63 433.958 908.007 433.958H787.981C781.357 433.958 775.987 428.588 775.987 421.964V278.042Z" fill="#27272A"/>
<path d="M832.877 305.018C834.376 303.519 833.252 299.021 830.721 299.021C828.19 299.021 828.379 302.019 829.878 302.019C831.378 302.019 831.378 305.018 831.378 306.517C831.378 308.016 832.877 305.018 832.877 305.018ZM826.606 307.596C828.105 306.097 826.98 301.6 824.45 301.6C821.919 301.6 822.108 304.598 823.607 304.598C825.106 304.598 825.106 307.596 825.106 309.096C825.106 310.595 826.606 307.596 826.606 307.596Z" fill="#AA8DD8"/>
<path d="M866.147 348.278C866.43 349.49 867.986 351.697 869.193 351.413C870.401 351.128 870.808 348.458 870.524 347.25C870.241 346.039 869.028 345.291 867.82 345.575C866.613 345.86 865.862 347.07 866.147 348.278ZM858 349.251C858.005 350.496 859.021 352.996 860.262 352.992C861.504 352.986 862.502 350.478 862.498 349.235C862.493 347.992 861.483 346.991 860.241 346.994C859 347 857.996 348.009 858 349.251ZM850.098 345.584C849.609 346.73 849.551 349.427 850.692 349.917C851.836 350.403 853.745 348.497 854.234 347.353C854.721 346.211 854.192 344.89 853.051 344.4C851.909 343.913 850.588 344.441 850.098 345.584ZM842.556 329.033C841.338 329.291 839.095 330.792 839.349 332.006C839.608 333.221 842.265 333.691 843.482 333.435C844.698 333.179 845.474 331.985 845.221 330.771C844.963 329.557 843.774 328.777 842.556 329.033ZM839.502 321.537C838.284 321.795 836.042 323.296 836.295 324.51C836.554 325.725 839.211 326.195 840.428 325.939C841.644 325.683 842.421 324.489 842.167 323.275C841.909 322.061 840.719 321.281 839.502 321.537Z" fill="#744EAA"/>
<path d="M862.604 349.994C866.848 349.994 869.989 348.679 870.499 348.454C873.904 346.94 875.436 342.953 873.923 339.55C872.425 336.177 868.502 334.64 865.12 336.081C864.921 336.156 862.432 337.054 860.108 335.973C857.333 334.682 855.618 331.012 854.669 328.164C854.453 327.519 854.092 326.254 853.641 324.692C850.843 314.99 849.395 312.271 847.669 309.97C842.106 302.547 833.289 302.03 828.955 302.9C825.301 303.63 822.931 307.184 823.663 310.838C824.394 314.493 827.951 316.864 831.603 316.13C831.845 316.091 834.907 315.671 836.736 317.882C837.7 319.812 839.854 325.57 840.679 328.428C841.197 330.225 841.622 331.682 841.869 332.426C844.527 340.397 848.864 345.758 854.767 348.361C857.543 349.587 860.245 349.994 862.604 349.994Z" fill="#9266CC"/>
<path d="M831.778 308.016C832.606 308.016 833.277 307.345 833.277 306.517C833.277 305.689 832.606 305.018 831.778 305.018C830.95 305.018 830.279 305.689 830.279 306.517C830.279 307.345 830.95 308.016 831.778 308.016Z" fill="#202024"/>
<path d="M868.12 348.44C867.986 348.44 867.85 348.422 867.716 348.386C866.919 348.165 866.451 347.338 866.673 346.541C867.808 342.46 865.518 339.732 865.496 339.705C864.958 339.076 865.028 338.129 865.656 337.591C866.283 337.053 867.232 337.123 867.77 337.751C867.908 337.912 871.119 341.739 869.562 347.341C869.379 348.006 868.775 348.44 868.12 348.44ZM857.327 347.596C856.96 347.596 856.592 347.463 856.301 347.192C855.697 346.625 855.666 345.676 856.231 345.072C858.457 342.692 858.409 338.786 858.408 338.745C858.384 337.918 859.036 337.228 859.865 337.204C860.678 337.196 861.384 337.832 861.406 338.661C861.412 338.87 861.516 343.814 858.421 347.123C858.126 347.437 857.726 347.596 857.327 347.596ZM844.521 334.559C843.801 334.559 843.166 334.039 843.044 333.305C842.909 332.489 843.461 331.715 844.278 331.582C848.886 330.817 851.435 328.018 851.461 327.99C852.008 327.375 852.957 327.317 853.573 327.864C854.191 328.411 854.252 329.353 853.709 329.972C853.579 330.12 850.477 333.592 844.768 334.538C844.684 334.553 844.602 334.559 844.521 334.559ZM848.9 341.841C848.263 341.841 847.672 341.433 847.47 340.794C847.221 340.006 847.659 339.162 848.447 338.913C852.484 337.634 854.264 334.67 854.282 334.64C854.702 333.925 855.619 333.685 856.333 334.105C857.048 334.523 857.286 335.444 856.868 336.156C856.774 336.318 854.477 340.148 849.353 341.769C849.201 341.818 849.048 341.841 848.9 341.841ZM841.975 325.845C841.232 325.845 840.585 325.291 840.489 324.533C840.386 323.711 840.968 322.962 841.789 322.857C845.821 322.347 848.771 319.902 848.799 319.876C849.432 319.346 850.378 319.422 850.91 320.055C851.444 320.686 851.368 321.629 850.738 322.164C850.593 322.289 847.11 325.206 842.166 325.831C842.101 325.84 842.038 325.845 841.975 325.845ZM839.245 318.698C838.608 318.698 838.017 318.289 837.815 317.647C837.568 316.857 838.005 316.016 838.795 315.767C843.488 314.293 845.171 311.731 845.24 311.623C845.683 310.931 846.606 310.716 847.302 311.156C847.999 311.593 848.218 312.503 847.788 313.203C847.698 313.349 845.53 316.795 839.693 318.629C839.545 318.675 839.394 318.698 839.245 318.698Z" fill="#744EAA"/>
<path d="M802.221 393.984V378.719H807.662C808.849 378.719 809.833 378.935 810.613 379.368C811.393 379.8 811.977 380.391 812.365 381.142C812.752 381.887 812.946 382.727 812.946 383.661C812.946 384.6 812.75 385.445 812.357 386.195C811.97 386.94 811.383 387.532 810.598 387.969C809.818 388.401 808.837 388.617 807.654 388.617H803.912V386.665H807.445C808.196 386.665 808.804 386.535 809.271 386.277C809.739 386.014 810.081 385.656 810.3 385.204C810.519 384.752 810.628 384.237 810.628 383.661C810.628 383.084 810.519 382.573 810.3 382.125C810.081 381.678 809.736 381.328 809.264 381.075C808.797 380.821 808.181 380.694 807.416 380.694H804.524V393.984H802.221ZM815.467 393.984V382.535H817.621V384.354H817.74C817.949 383.738 818.317 383.253 818.843 382.901C819.375 382.543 819.976 382.364 820.647 382.364C820.786 382.364 820.95 382.369 821.139 382.379C821.333 382.389 821.484 382.401 821.594 382.416V384.548C821.504 384.523 821.345 384.496 821.117 384.466C820.888 384.431 820.66 384.414 820.431 384.414C819.904 384.414 819.435 384.525 819.022 384.749C818.615 384.968 818.292 385.273 818.053 385.666C817.815 386.053 817.696 386.496 817.696 386.993V393.984H815.467ZM827.935 394.215C826.861 394.215 825.925 393.969 825.125 393.477C824.325 392.985 823.704 392.297 823.261 391.412C822.819 390.528 822.598 389.494 822.598 388.312C822.598 387.124 822.819 386.086 823.261 385.196C823.704 384.307 824.325 383.616 825.125 383.124C825.925 382.632 826.861 382.386 827.935 382.386C829.008 382.386 829.945 382.632 830.745 383.124C831.545 383.616 832.166 384.307 832.608 385.196C833.05 386.086 833.271 387.124 833.271 388.312C833.271 389.494 833.05 390.528 832.608 391.412C832.166 392.297 831.545 392.985 830.745 393.477C829.945 393.969 829.008 394.215 827.935 394.215ZM827.942 392.344C828.638 392.344 829.214 392.16 829.671 391.792C830.128 391.425 830.466 390.935 830.685 390.324C830.909 389.713 831.02 389.04 831.02 388.304C831.02 387.574 830.909 386.903 830.685 386.292C830.466 385.676 830.128 385.181 829.671 384.809C829.214 384.436 828.638 384.25 827.942 384.25C827.241 384.25 826.66 384.436 826.198 384.809C825.741 385.181 825.4 385.676 825.177 386.292C824.958 386.903 824.849 387.574 824.849 388.304C824.849 389.04 824.958 389.713 825.177 390.324C825.4 390.935 825.741 391.425 826.198 391.792C826.66 392.16 827.241 392.344 827.942 392.344ZM835.938 393.984V378.719H838.166V384.391H838.3C838.43 384.153 838.616 383.877 838.859 383.564C839.103 383.251 839.441 382.978 839.873 382.744C840.305 382.506 840.877 382.386 841.587 382.386C842.512 382.386 843.336 382.62 844.062 383.087C844.787 383.554 845.356 384.227 845.769 385.107C846.186 385.986 846.395 387.045 846.395 388.282C846.395 389.519 846.189 390.58 845.776 391.465C845.364 392.344 844.797 393.022 844.077 393.499C843.356 393.971 842.534 394.207 841.61 394.207C840.914 394.207 840.345 394.091 839.903 393.857C839.466 393.624 839.123 393.35 838.874 393.037C838.626 392.724 838.435 392.446 838.3 392.202H838.114V393.984H835.938ZM838.121 388.26C838.121 389.065 838.238 389.77 838.472 390.376C838.705 390.983 839.043 391.457 839.485 391.8C839.928 392.138 840.469 392.307 841.11 392.307C841.776 392.307 842.333 392.13 842.78 391.778C843.227 391.42 843.565 390.935 843.793 390.324C844.027 389.713 844.144 389.025 844.144 388.26C844.144 387.504 844.03 386.826 843.801 386.225C843.577 385.624 843.239 385.149 842.787 384.801C842.34 384.453 841.781 384.28 841.11 384.28C840.464 384.28 839.918 384.446 839.471 384.779C839.028 385.112 838.693 385.576 838.464 386.173C838.236 386.769 838.121 387.465 838.121 388.26ZM851.126 378.719V393.984H848.897V378.719H851.126ZM859.058 394.215C857.93 394.215 856.959 393.974 856.144 393.492C855.334 393.005 854.708 392.322 854.265 391.442C853.828 390.558 853.61 389.522 853.61 388.334C853.61 387.161 853.828 386.128 854.265 385.234C854.708 384.339 855.324 383.641 856.114 383.139C856.909 382.637 857.838 382.386 858.901 382.386C859.547 382.386 860.173 382.493 860.78 382.707C861.386 382.921 861.93 383.256 862.412 383.713C862.894 384.17 863.274 384.764 863.552 385.494C863.831 386.22 863.97 387.102 863.97 388.14V388.93H854.869V387.261H861.786C861.786 386.675 861.667 386.155 861.428 385.703C861.19 385.246 860.854 384.886 860.422 384.622C859.995 384.359 859.493 384.227 858.916 384.227C858.29 384.227 857.744 384.381 857.277 384.689C856.815 384.993 856.457 385.39 856.203 385.882C855.955 386.369 855.831 386.898 855.831 387.47V388.774C855.831 389.539 855.965 390.19 856.233 390.727C856.506 391.263 856.887 391.673 857.374 391.956C857.86 392.235 858.429 392.374 859.08 392.374C859.503 392.374 859.888 392.314 860.236 392.195C860.583 392.071 860.884 391.887 861.137 391.643C861.391 391.4 861.585 391.099 861.719 390.742L863.828 391.122C863.659 391.743 863.356 392.287 862.919 392.754C862.487 393.216 861.942 393.576 861.287 393.835C860.636 394.088 859.893 394.215 859.058 394.215ZM866.442 393.984V382.535H868.581V384.399H868.723C868.962 383.768 869.352 383.276 869.893 382.923C870.435 382.565 871.083 382.386 871.839 382.386C872.604 382.386 873.245 382.565 873.762 382.923C874.283 383.281 874.668 383.773 874.917 384.399H875.036C875.309 383.788 875.744 383.301 876.34 382.938C876.937 382.57 877.647 382.386 878.472 382.386C879.511 382.386 880.358 382.712 881.014 383.363C881.675 384.014 882.005 384.995 882.005 386.307V393.984H879.776V386.516C879.776 385.74 879.565 385.179 879.143 384.831C878.721 384.483 878.216 384.309 877.63 384.309C876.904 384.309 876.34 384.533 875.938 384.98C875.535 385.422 875.334 385.991 875.334 386.687V393.984H873.113V386.374C873.113 385.753 872.919 385.253 872.532 384.876C872.144 384.498 871.64 384.309 871.019 384.309C870.596 384.309 870.206 384.421 869.849 384.645C869.496 384.863 869.21 385.169 868.991 385.561C868.778 385.954 868.671 386.409 868.671 386.925V393.984H866.442ZM888.324 394.237C887.598 394.237 886.942 394.103 886.356 393.835C885.77 393.561 885.305 393.166 884.962 392.65C884.624 392.133 884.455 391.499 884.455 390.749C884.455 390.103 884.579 389.571 884.828 389.154C885.076 388.737 885.412 388.406 885.834 388.163C886.256 387.919 886.729 387.735 887.25 387.611C887.772 387.487 888.304 387.393 888.845 387.328C889.531 387.248 890.087 387.184 890.515 387.134C890.942 387.079 891.253 386.993 891.446 386.873C891.64 386.754 891.737 386.56 891.737 386.292V386.24C891.737 385.589 891.553 385.084 891.186 384.727C890.823 384.369 890.281 384.19 889.561 384.19C888.81 384.19 888.219 384.357 887.787 384.689C887.36 385.017 887.064 385.383 886.9 385.785L884.806 385.308C885.054 384.612 885.417 384.051 885.894 383.624C886.376 383.191 886.93 382.878 887.556 382.684C888.182 382.486 888.84 382.386 889.531 382.386C889.988 382.386 890.473 382.441 890.984 382.55C891.501 382.655 891.983 382.848 892.43 383.132C892.882 383.415 893.253 383.82 893.541 384.347C893.829 384.868 893.973 385.547 893.973 386.381V393.984H891.797V392.419H891.707C891.563 392.707 891.347 392.99 891.059 393.268C890.771 393.547 890.401 393.778 889.948 393.961C889.496 394.145 888.955 394.237 888.324 394.237ZM888.808 392.448C889.424 392.448 889.951 392.327 890.388 392.083C890.83 391.84 891.166 391.522 891.394 391.129C891.628 390.732 891.745 390.307 891.745 389.855V388.379C891.665 388.458 891.511 388.533 891.283 388.602C891.059 388.667 890.803 388.724 890.515 388.774C890.227 388.819 889.946 388.861 889.673 388.901C889.399 388.935 889.171 388.965 888.987 388.99C888.555 389.045 888.16 389.137 887.802 389.266C887.449 389.395 887.166 389.581 886.952 389.825C886.743 390.063 886.639 390.381 886.639 390.779C886.639 391.33 886.843 391.748 887.25 392.031C887.658 392.309 888.177 392.448 888.808 392.448Z" fill="#F4F4F5"/>
<path d="M931.994 278.042C931.994 271.418 937.363 266.049 943.987 266.049H1064.01C1070.64 266.049 1076.01 271.418 1076.01 278.042V421.964C1076.01 428.588 1070.64 433.958 1064.01 433.958H943.987C937.363 433.958 931.994 428.588 931.994 421.964V278.042Z" fill="#27272A"/>
<path d="M1020.49 316.891C1020.49 326.545 1013 328.044 1013 337.041C1013 341.685 1008.31 342.076 1004.75 342.076C1001.67 342.076 994.876 340.908 994.876 337.038C994.876 328.045 987.509 326.546 987.509 316.891C987.509 307.85 995.432 300.52 1004.12 300.52C1012.82 300.52 1020.49 307.85 1020.49 316.891Z" fill="#FFD983"/>
<path d="M1010.25 349.034C1010.25 350.275 1006.9 352.782 1004 352.782C1001.1 352.782 997.753 350.275 997.753 349.034C997.753 347.793 1001.1 348.284 1004 348.284C1006.9 348.284 1010.25 347.793 1010.25 349.034Z" fill="#CCD6DD"/>
<path d="M1011.06 315.742C1010.47 315.155 1009.52 315.155 1008.94 315.742L1004 320.678L999.063 315.742C998.477 315.155 997.53 315.155 996.944 315.742C996.357 316.328 996.357 317.275 996.944 317.861L1002.5 323.419V339.289C1002.5 340.118 1003.17 340.789 1004 340.789C1004.83 340.789 1005.5 340.118 1005.5 339.289V323.419L1011.06 317.861C1011.64 317.275 1011.64 316.328 1011.06 315.742Z" fill="#FFCC4D"/>
<path d="M1013 346.785C1013 348.44 1011.65 349.784 1010 349.784H998.003C996.348 349.784 995.005 348.44 995.005 346.785V337.79H1013V346.785Z" fill="#99AAB5"/>
<path d="M995.004 348.284C994.284 348.284 993.648 347.764 993.527 347.031C993.39 346.216 993.942 345.442 994.759 345.307L1012.75 342.309C1013.56 342.162 1014.34 342.724 1014.47 343.541C1014.61 344.357 1014.06 345.13 1013.24 345.265L995.251 348.263C995.168 348.278 995.084 348.284 995.004 348.284ZM995.004 342.288C994.284 342.288 993.648 341.767 993.527 341.034C993.39 340.219 993.942 339.445 994.759 339.31L1012.75 336.312C1013.56 336.166 1014.34 336.727 1014.47 337.544C1014.61 338.36 1014.06 339.133 1013.24 339.268L995.251 342.267C995.168 342.282 995.084 342.288 995.004 342.288Z" fill="#CCD6DD"/>
<path d="M983.835 378.719V393.984H981.532V378.719H983.835ZM991.296 394.207C990.372 394.207 989.547 393.971 988.821 393.499C988.101 393.022 987.534 392.344 987.122 391.465C986.714 390.58 986.511 389.519 986.511 388.282C986.511 387.045 986.717 385.986 987.129 385.107C987.547 384.227 988.118 383.554 988.844 383.087C989.569 382.62 990.391 382.386 991.311 382.386C992.021 382.386 992.593 382.506 993.025 382.744C993.462 382.978 993.8 383.251 994.039 383.564C994.282 383.877 994.471 384.153 994.605 384.391H994.739V378.719H996.968V393.984H994.791V392.202H994.605C994.471 392.446 994.277 392.724 994.024 393.037C993.775 393.35 993.432 393.624 992.995 393.857C992.558 394.091 991.991 394.207 991.296 394.207ZM991.788 392.307C992.429 392.307 992.97 392.138 993.413 391.8C993.86 391.457 994.198 390.983 994.426 390.376C994.66 389.77 994.777 389.065 994.777 388.26C994.777 387.465 994.662 386.769 994.434 386.173C994.205 385.576 993.87 385.112 993.427 384.779C992.985 384.446 992.439 384.28 991.788 384.28C991.117 384.28 990.558 384.453 990.111 384.801C989.664 385.149 989.326 385.624 989.097 386.225C988.873 386.826 988.762 387.504 988.762 388.26C988.762 389.025 988.876 389.713 989.105 390.324C989.333 390.935 989.671 391.42 990.118 391.778C990.57 392.13 991.127 392.307 991.788 392.307ZM1005.08 394.215C1003.95 394.215 1002.98 393.974 1002.17 393.492C1001.36 393.005 1000.73 392.322 1000.29 391.442C999.853 390.558 999.634 389.522 999.634 388.334C999.634 387.161 999.853 386.128 1000.29 385.234C1000.73 384.339 1001.35 383.641 1002.14 383.139C1002.93 382.637 1003.86 382.386 1004.93 382.386C1005.57 382.386 1006.2 382.493 1006.8 382.707C1007.41 382.921 1007.95 383.256 1008.44 383.713C1008.92 384.17 1009.3 384.764 1009.58 385.494C1009.86 386.22 1009.99 387.102 1009.99 388.14V388.93H1000.89V387.261H1007.81C1007.81 386.675 1007.69 386.155 1007.45 385.703C1007.21 385.246 1006.88 384.886 1006.45 384.622C1006.02 384.359 1005.52 384.227 1004.94 384.227C1004.31 384.227 1003.77 384.381 1003.3 384.689C1002.84 384.993 1002.48 385.39 1002.23 385.882C1001.98 386.369 1001.86 386.898 1001.86 387.47V388.774C1001.86 389.539 1001.99 390.19 1002.26 390.727C1002.53 391.263 1002.91 391.673 1003.4 391.956C1003.89 392.235 1004.45 392.374 1005.11 392.374C1005.53 392.374 1005.91 392.314 1006.26 392.195C1006.61 392.071 1006.91 391.887 1007.16 391.643C1007.42 391.4 1007.61 391.099 1007.74 390.742L1009.85 391.122C1009.68 391.743 1009.38 392.287 1008.94 392.754C1008.51 393.216 1007.97 393.576 1007.31 393.835C1006.66 394.088 1005.92 394.215 1005.08 394.215ZM1012.47 393.984V382.535H1014.7V393.984H1012.47ZM1013.59 380.769C1013.2 380.769 1012.87 380.64 1012.59 380.381C1012.32 380.118 1012.18 379.805 1012.18 379.442C1012.18 379.075 1012.32 378.762 1012.59 378.503C1012.87 378.24 1013.2 378.108 1013.59 378.108C1013.98 378.108 1014.31 378.24 1014.58 378.503C1014.86 378.762 1015 379.075 1015 379.442C1015 379.805 1014.86 380.118 1014.58 380.381C1014.31 380.64 1013.98 380.769 1013.59 380.769ZM1021.03 394.237C1020.3 394.237 1019.64 394.103 1019.06 393.835C1018.47 393.561 1018.01 393.166 1017.66 392.65C1017.33 392.133 1017.16 391.499 1017.16 390.749C1017.16 390.103 1017.28 389.571 1017.53 389.154C1017.78 388.737 1018.11 388.406 1018.54 388.163C1018.96 387.919 1019.43 387.735 1019.95 387.611C1020.47 387.487 1021.01 387.393 1021.55 387.328C1022.23 387.248 1022.79 387.184 1023.22 387.134C1023.64 387.079 1023.95 386.993 1024.15 386.873C1024.34 386.754 1024.44 386.56 1024.44 386.292V386.24C1024.44 385.589 1024.26 385.084 1023.89 384.727C1023.52 384.369 1022.98 384.19 1022.26 384.19C1021.51 384.19 1020.92 384.357 1020.49 384.689C1020.06 385.017 1019.77 385.383 1019.6 385.785L1017.51 385.308C1017.76 384.612 1018.12 384.051 1018.6 383.624C1019.08 383.191 1019.63 382.878 1020.26 382.684C1020.88 382.486 1021.54 382.386 1022.23 382.386C1022.69 382.386 1023.17 382.441 1023.69 382.55C1024.2 382.655 1024.68 382.848 1025.13 383.132C1025.58 383.415 1025.95 383.82 1026.24 384.347C1026.53 384.868 1026.67 385.547 1026.67 386.381V393.984H1024.5V392.419H1024.41C1024.27 392.707 1024.05 392.99 1023.76 393.268C1023.47 393.547 1023.1 393.778 1022.65 393.961C1022.2 394.145 1021.66 394.237 1021.03 394.237ZM1021.51 392.448C1022.13 392.448 1022.65 392.327 1023.09 392.083C1023.53 391.84 1023.87 391.522 1024.1 391.129C1024.33 390.732 1024.45 390.307 1024.45 389.855V388.379C1024.37 388.458 1024.21 388.533 1023.98 388.602C1023.76 388.667 1023.5 388.724 1023.22 388.774C1022.93 388.819 1022.65 388.861 1022.37 388.901C1022.1 388.935 1021.87 388.965 1021.69 388.99C1021.26 389.045 1020.86 389.137 1020.5 389.266C1020.15 389.395 1019.87 389.581 1019.65 389.825C1019.45 390.063 1019.34 390.381 1019.34 390.779C1019.34 391.33 1019.54 391.748 1019.95 392.031C1020.36 392.309 1020.88 392.448 1021.51 392.448Z" fill="#F4F4F5"/>
<path d="M1088 278.042C1088 271.418 1093.37 266.049 1099.99 266.049H1220.02C1226.64 266.049 1232.01 271.418 1232.01 278.042V421.964C1232.01 428.588 1226.64 433.958 1220.02 433.958H1099.99C1093.37 433.958 1088 428.588 1088 421.964V278.042Z" fill="#27272A"/>
<path d="M1186.99 318.323C1186.99 312.527 1182.29 307.829 1176.5 307.829C1174.75 307.829 1173.1 308.264 1171.65 309.019C1168.53 304.781 1163.52 302.019 1157.85 302.019C1150.16 302.019 1143.65 307.087 1141.48 314.067C1137.49 314.992 1134.52 318.556 1134.52 322.821C1134.52 327.287 1137.78 330.984 1142.05 331.685C1142.37 337.606 1147.26 342.31 1153.26 342.31C1156.52 342.31 1159.45 340.911 1161.51 338.693C1163.56 340.911 1166.49 342.31 1169.75 342.31C1175.96 342.31 1181 337.277 1181 331.066C1181 330.002 1180.84 328.976 1180.56 328C1184.34 326.413 1186.99 322.678 1186.99 318.323Z" fill="#85C8F8"/>
<path d="M1140.52 351.305C1143 351.305 1145.01 349.292 1145.01 346.808C1145.01 344.324 1143 342.31 1140.52 342.31C1138.03 342.31 1136.02 344.324 1136.02 346.808C1136.02 349.292 1138.03 351.305 1140.52 351.305Z" fill="#85C8F8"/>
<path d="M1146.59 386.352C1146.59 387.981 1146.29 389.383 1145.69 390.555C1145.1 391.723 1144.28 392.622 1143.24 393.253C1142.21 393.879 1141.03 394.192 1139.71 394.192C1138.39 394.192 1137.21 393.879 1136.17 393.253C1135.14 392.622 1134.32 391.72 1133.73 390.548C1133.13 389.375 1132.83 387.976 1132.83 386.352C1132.83 384.722 1133.13 383.323 1133.73 382.155C1134.32 380.983 1135.14 380.083 1136.17 379.457C1137.21 378.826 1138.39 378.511 1139.71 378.511C1141.03 378.511 1142.21 378.826 1143.24 379.457C1144.28 380.083 1145.1 380.983 1145.69 382.155C1146.29 383.323 1146.59 384.722 1146.59 386.352ZM1144.3 386.352C1144.3 385.109 1144.1 384.063 1143.7 383.214C1143.3 382.359 1142.76 381.713 1142.06 381.276C1141.37 380.834 1140.59 380.612 1139.71 380.612C1138.83 380.612 1138.05 380.834 1137.36 381.276C1136.67 381.713 1136.12 382.359 1135.72 383.214C1135.32 384.063 1135.12 385.109 1135.12 386.352C1135.12 387.594 1135.32 388.642 1135.72 389.497C1136.12 390.347 1136.67 390.992 1137.36 391.435C1138.05 391.872 1138.83 392.091 1139.71 392.091C1140.59 392.091 1141.37 391.872 1142.06 391.435C1142.76 390.992 1143.3 390.347 1143.7 389.497C1144.1 388.642 1144.3 387.594 1144.3 386.352ZM1156.53 389.236V382.535H1158.77V393.984H1156.58V392.001H1156.46C1156.19 392.612 1155.77 393.122 1155.19 393.529C1154.61 393.932 1153.89 394.133 1153.03 394.133C1152.3 394.133 1151.65 393.971 1151.08 393.648C1150.52 393.32 1150.08 392.836 1149.76 392.195C1149.44 391.554 1149.28 390.761 1149.28 389.817V382.535H1151.51V389.549C1151.51 390.329 1151.72 390.95 1152.16 391.412C1152.59 391.874 1153.15 392.106 1153.84 392.106C1154.26 392.106 1154.67 392.001 1155.08 391.792C1155.5 391.584 1155.85 391.268 1156.12 390.846C1156.4 390.424 1156.54 389.887 1156.53 389.236ZM1167.1 382.535V384.324H1160.85V382.535H1167.1ZM1162.53 379.793H1164.76V390.622C1164.76 391.055 1164.82 391.38 1164.95 391.599C1165.08 391.812 1165.25 391.959 1165.45 392.038C1165.66 392.113 1165.88 392.15 1166.13 392.15C1166.31 392.15 1166.46 392.138 1166.6 392.113C1166.73 392.088 1166.84 392.068 1166.91 392.053L1167.31 393.894C1167.18 393.944 1167 393.994 1166.76 394.043C1166.52 394.098 1166.23 394.128 1165.87 394.133C1165.28 394.143 1164.73 394.038 1164.23 393.82C1163.72 393.601 1163.31 393.263 1163 392.806C1162.68 392.349 1162.53 391.775 1162.53 391.084V379.793ZM1169.57 393.984V382.535H1171.72V384.354H1171.84C1172.05 383.738 1172.42 383.253 1172.95 382.901C1173.48 382.543 1174.08 382.364 1174.75 382.364C1174.89 382.364 1175.05 382.369 1175.24 382.379C1175.44 382.389 1175.59 382.401 1175.7 382.416V384.548C1175.61 384.523 1175.45 384.496 1175.22 384.466C1174.99 384.431 1174.76 384.414 1174.53 384.414C1174.01 384.414 1173.54 384.525 1173.13 384.749C1172.72 384.968 1172.39 385.273 1172.16 385.666C1171.92 386.053 1171.8 386.496 1171.8 386.993V393.984H1169.57ZM1182.04 394.215C1180.96 394.215 1180.03 393.969 1179.23 393.477C1178.43 392.985 1177.81 392.297 1177.36 391.412C1176.92 390.528 1176.7 389.494 1176.7 388.312C1176.7 387.124 1176.92 386.086 1177.36 385.196C1177.81 384.307 1178.43 383.616 1179.23 383.124C1180.03 382.632 1180.96 382.386 1182.04 382.386C1183.11 382.386 1184.05 382.632 1184.85 383.124C1185.65 383.616 1186.27 384.307 1186.71 385.196C1187.15 386.086 1187.37 387.124 1187.37 388.312C1187.37 389.494 1187.15 390.528 1186.71 391.412C1186.27 392.297 1185.65 392.985 1184.85 393.477C1184.05 393.969 1183.11 394.215 1182.04 394.215ZM1182.05 392.344C1182.74 392.344 1183.32 392.16 1183.77 391.792C1184.23 391.425 1184.57 390.935 1184.79 390.324C1185.01 389.713 1185.12 389.04 1185.12 388.304C1185.12 387.574 1185.01 386.903 1184.79 386.292C1184.57 385.676 1184.23 385.181 1183.77 384.809C1183.32 384.436 1182.74 384.25 1182.05 384.25C1181.34 384.25 1180.76 384.436 1180.3 384.809C1179.84 385.181 1179.5 385.676 1179.28 386.292C1179.06 386.903 1178.95 387.574 1178.95 388.304C1178.95 389.04 1179.06 389.713 1179.28 390.324C1179.5 390.935 1179.84 391.425 1180.3 391.792C1180.76 392.16 1181.34 392.344 1182.05 392.344Z" fill="#F4F4F5"/>
</g>
<path d="M880.255 525.026V511.942H888.369V513.642H882.229V517.628H887.787V519.321H882.229V525.026H880.255ZM894.152 525.224C893.185 525.224 892.353 525.017 891.654 524.604C890.96 524.187 890.423 523.601 890.044 522.847C889.669 522.089 889.482 521.201 889.482 520.183C889.482 519.178 889.669 518.292 890.044 517.526C890.423 516.759 890.951 516.161 891.629 515.731C892.31 515.3 893.106 515.085 894.018 515.085C894.572 515.085 895.108 515.177 895.628 515.36C896.147 515.543 896.614 515.831 897.027 516.223C897.44 516.614 897.766 517.123 898.004 517.749C898.243 518.371 898.362 519.127 898.362 520.017V520.695H890.562V519.263H896.49C896.49 518.761 896.388 518.316 896.184 517.928C895.979 517.536 895.692 517.228 895.321 517.002C894.955 516.776 894.525 516.663 894.031 516.663C893.494 516.663 893.026 516.795 892.625 517.059C892.229 517.319 891.922 517.66 891.705 518.082C891.492 518.499 891.386 518.953 891.386 519.442V520.56C891.386 521.216 891.501 521.774 891.731 522.234C891.965 522.694 892.291 523.046 892.708 523.288C893.126 523.527 893.613 523.646 894.171 523.646C894.533 523.646 894.863 523.595 895.161 523.493C895.46 523.386 895.717 523.229 895.934 523.02C896.152 522.811 896.318 522.554 896.433 522.247L898.241 522.573C898.096 523.105 897.836 523.572 897.461 523.972C897.091 524.368 896.624 524.677 896.062 524.898C895.504 525.115 894.868 525.224 894.152 525.224ZM900.482 525.026V515.213H902.392V525.026H900.482ZM901.446 513.699C901.114 513.699 900.829 513.588 900.59 513.367C900.356 513.141 900.239 512.873 900.239 512.562C900.239 512.247 900.356 511.978 900.59 511.757C900.829 511.531 901.114 511.418 901.446 511.418C901.778 511.418 902.062 511.531 902.296 511.757C902.534 511.978 902.654 512.247 902.654 512.562C902.654 512.873 902.534 513.141 902.296 513.367C902.062 513.588 901.778 513.699 901.446 513.699ZM909.542 515.213V516.746H904.182V515.213H909.542ZM905.62 512.862H907.53V522.145C907.53 522.515 907.585 522.794 907.696 522.982C907.807 523.165 907.949 523.29 908.124 523.359C908.303 523.422 908.497 523.454 908.705 523.454C908.859 523.454 908.993 523.444 909.108 523.422C909.223 523.401 909.312 523.384 909.376 523.371L909.721 524.949C909.61 524.992 909.453 525.035 909.248 525.077C909.044 525.124 908.788 525.15 908.482 525.154C907.979 525.162 907.511 525.073 907.076 524.885C906.642 524.698 906.29 524.408 906.022 524.017C905.754 523.625 905.62 523.133 905.62 522.541V512.862ZM915.683 525.224C914.763 525.224 913.96 525.013 913.275 524.592C912.589 524.17 912.057 523.58 911.678 522.822C911.299 522.064 911.109 521.178 911.109 520.164C911.109 519.146 911.299 518.256 911.678 517.494C912.057 516.731 912.589 516.139 913.275 515.718C913.96 515.296 914.763 515.085 915.683 515.085C916.603 515.085 917.406 515.296 918.092 515.718C918.777 516.139 919.31 516.731 919.689 517.494C920.068 518.256 920.257 519.146 920.257 520.164C920.257 521.178 920.068 522.064 919.689 522.822C919.31 523.58 918.777 524.17 918.092 524.592C917.406 525.013 916.603 525.224 915.683 525.224ZM915.69 523.621C916.286 523.621 916.78 523.463 917.172 523.148C917.564 522.833 917.853 522.413 918.041 521.889C918.232 521.365 918.328 520.788 918.328 520.158C918.328 519.532 918.232 518.957 918.041 518.433C917.853 517.905 917.564 517.481 917.172 517.162C916.78 516.842 916.286 516.683 915.69 516.683C915.089 516.683 914.591 516.842 914.195 517.162C913.803 517.481 913.511 517.905 913.319 518.433C913.132 518.957 913.038 519.532 913.038 520.158C913.038 520.788 913.132 521.365 913.319 521.889C913.511 522.413 913.803 522.833 914.195 523.148C914.591 523.463 915.089 523.621 915.69 523.621ZM931.284 525.224C930.334 525.224 929.517 525.009 928.831 524.579C928.149 524.144 927.626 523.546 927.259 522.784C926.893 522.021 926.71 521.148 926.71 520.164C926.71 519.168 926.897 518.288 927.272 517.526C927.647 516.759 928.175 516.161 928.856 515.731C929.538 515.3 930.341 515.085 931.265 515.085C932.01 515.085 932.675 515.224 933.258 515.501C933.842 515.773 934.312 516.157 934.67 516.651C935.032 517.145 935.247 517.722 935.315 518.382H933.456C933.354 517.922 933.12 517.526 932.754 517.194C932.391 516.861 931.906 516.695 931.297 516.695C930.765 516.695 930.298 516.836 929.898 517.117C929.502 517.394 929.193 517.79 928.971 518.305C928.75 518.816 928.639 519.421 928.639 520.12C928.639 520.835 928.748 521.453 928.965 521.972C929.182 522.492 929.489 522.894 929.885 523.18C930.285 523.465 930.756 523.608 931.297 523.608C931.659 523.608 931.987 523.542 932.281 523.41C932.579 523.273 932.828 523.08 933.028 522.828C933.233 522.577 933.375 522.275 933.456 521.921H935.315C935.247 522.556 935.041 523.122 934.696 523.621C934.351 524.119 933.889 524.511 933.309 524.796C932.734 525.081 932.059 525.224 931.284 525.224ZM941.491 525.224C940.572 525.224 939.769 525.013 939.083 524.592C938.397 524.17 937.865 523.58 937.486 522.822C937.107 522.064 936.917 521.178 936.917 520.164C936.917 519.146 937.107 518.256 937.486 517.494C937.865 516.731 938.397 516.139 939.083 515.718C939.769 515.296 940.572 515.085 941.491 515.085C942.411 515.085 943.214 515.296 943.9 515.718C944.586 516.139 945.118 516.731 945.497 517.494C945.876 518.256 946.066 519.146 946.066 520.164C946.066 521.178 945.876 522.064 945.497 522.822C945.118 523.58 944.586 524.17 943.9 524.592C943.214 525.013 942.411 525.224 941.491 525.224ZM941.498 523.621C942.094 523.621 942.588 523.463 942.98 523.148C943.372 522.833 943.661 522.413 943.849 521.889C944.041 521.365 944.136 520.788 944.136 520.158C944.136 519.532 944.041 518.957 943.849 518.433C943.661 517.905 943.372 517.481 942.98 517.162C942.588 516.842 942.094 516.683 941.498 516.683C940.897 516.683 940.399 516.842 940.003 517.162C939.611 517.481 939.319 517.905 939.128 518.433C938.94 518.957 938.847 519.532 938.847 520.158C938.847 520.788 938.94 521.365 939.128 521.889C939.319 522.413 939.611 522.833 940.003 523.148C940.399 523.463 940.897 523.621 941.498 523.621ZM948.198 525.026V515.213H950.031V516.81H950.153C950.357 516.269 950.692 515.848 951.156 515.545C951.62 515.239 952.176 515.085 952.823 515.085C953.479 515.085 954.029 515.239 954.472 515.545C954.919 515.852 955.249 516.274 955.462 516.81H955.564C955.798 516.286 956.171 515.869 956.682 515.558C957.193 515.243 957.802 515.085 958.509 515.085C959.399 515.085 960.125 515.364 960.688 515.922C961.254 516.48 961.537 517.321 961.537 518.446V525.026H959.627V518.625C959.627 517.96 959.446 517.479 959.084 517.181C958.722 516.883 958.29 516.734 957.787 516.734C957.165 516.734 956.682 516.925 956.337 517.309C955.992 517.688 955.82 518.175 955.82 518.772V525.026H953.916V518.503C953.916 517.971 953.75 517.543 953.417 517.219C953.085 516.895 952.653 516.734 952.121 516.734C951.758 516.734 951.424 516.829 951.118 517.021C950.815 517.209 950.57 517.47 950.383 517.807C950.2 518.143 950.108 518.533 950.108 518.976V525.026H948.198ZM976.774 525.23L970.207 518.663C969.683 518.139 969.333 517.53 969.159 516.836C968.989 516.142 968.991 515.452 969.165 514.766C969.34 514.076 969.687 513.475 970.207 512.964C970.739 512.44 971.346 512.093 972.027 511.923C972.713 511.748 973.397 511.748 974.078 511.923C974.764 512.098 975.373 512.445 975.905 512.964L976.774 513.808L977.643 512.964C978.18 512.445 978.789 512.098 979.47 511.923C980.151 511.748 980.833 511.748 981.514 511.923C982.2 512.093 982.809 512.44 983.342 512.964C983.861 513.475 984.208 514.076 984.383 514.766C984.557 515.452 984.557 516.142 984.383 516.836C984.213 517.53 983.865 518.139 983.342 518.663L976.774 525.23ZM992.014 528.706V515.213H993.88V516.804H994.039C994.15 516.599 994.31 516.363 994.518 516.095C994.727 515.826 995.017 515.592 995.387 515.392C995.758 515.188 996.248 515.085 996.857 515.085C997.649 515.085 998.356 515.286 998.978 515.686C999.599 516.086 1000.09 516.663 1000.44 517.417C1000.8 518.171 1000.98 519.078 1000.98 520.139C1000.98 521.199 1000.8 522.109 1000.45 522.867C1000.09 523.621 999.608 524.202 998.99 524.611C998.373 525.015 997.668 525.218 996.876 525.218C996.279 525.218 995.792 525.118 995.413 524.917C995.038 524.717 994.744 524.483 994.531 524.215C994.318 523.946 994.154 523.708 994.039 523.499H993.924V528.706H992.014ZM993.886 520.12C993.886 520.81 993.986 521.414 994.186 521.934C994.386 522.454 994.676 522.86 995.055 523.154C995.434 523.444 995.898 523.589 996.448 523.589C997.018 523.589 997.495 523.437 997.879 523.135C998.262 522.828 998.552 522.413 998.748 521.889C998.948 521.365 999.048 520.775 999.048 520.12C999.048 519.472 998.95 518.891 998.754 518.375C998.562 517.86 998.273 517.453 997.885 517.155C997.502 516.857 997.023 516.708 996.448 516.708C995.894 516.708 995.426 516.851 995.042 517.136C994.663 517.421 994.376 517.82 994.18 518.331C993.984 518.842 993.886 519.438 993.886 520.12ZM1007.35 525.224C1006.38 525.224 1005.55 525.017 1004.85 524.604C1004.15 524.187 1003.62 523.601 1003.24 522.847C1002.86 522.089 1002.68 521.201 1002.68 520.183C1002.68 519.178 1002.86 518.292 1003.24 517.526C1003.62 516.759 1004.15 516.161 1004.82 515.731C1005.5 515.3 1006.3 515.085 1007.21 515.085C1007.77 515.085 1008.3 515.177 1008.82 515.36C1009.34 515.543 1009.81 515.831 1010.22 516.223C1010.63 516.614 1010.96 517.123 1011.2 517.749C1011.44 518.371 1011.56 519.127 1011.56 520.017V520.695H1003.76V519.263H1009.68C1009.68 518.761 1009.58 518.316 1009.38 517.928C1009.17 517.536 1008.89 517.228 1008.52 517.002C1008.15 516.776 1007.72 516.663 1007.23 516.663C1006.69 516.663 1006.22 516.795 1005.82 517.059C1005.42 517.319 1005.12 517.66 1004.9 518.082C1004.69 518.499 1004.58 518.953 1004.58 519.442V520.56C1004.58 521.216 1004.7 521.774 1004.93 522.234C1005.16 522.694 1005.49 523.046 1005.9 523.288C1006.32 523.527 1006.81 523.646 1007.37 523.646C1007.73 523.646 1008.06 523.595 1008.36 523.493C1008.65 523.386 1008.91 523.229 1009.13 523.02C1009.35 522.811 1009.51 522.554 1009.63 522.247L1011.44 522.573C1011.29 523.105 1011.03 523.572 1010.66 523.972C1010.29 524.368 1009.82 524.677 1009.26 524.898C1008.7 525.115 1008.06 525.224 1007.35 525.224ZM1015.59 511.942V525.026H1013.68V511.942H1015.59ZM1021.01 525.243C1020.39 525.243 1019.83 525.128 1019.33 524.898C1018.82 524.664 1018.42 524.325 1018.13 523.882C1017.84 523.44 1017.7 522.896 1017.7 522.253C1017.7 521.7 1017.8 521.244 1018.02 520.886C1018.23 520.528 1018.52 520.245 1018.88 520.037C1019.24 519.828 1019.64 519.67 1020.09 519.564C1020.54 519.457 1020.99 519.376 1021.46 519.321C1022.05 519.253 1022.52 519.197 1022.89 519.155C1023.26 519.108 1023.52 519.034 1023.69 518.931C1023.85 518.829 1023.94 518.663 1023.94 518.433V518.388C1023.94 517.83 1023.78 517.398 1023.47 517.091C1023.15 516.785 1022.69 516.631 1022.07 516.631C1021.43 516.631 1020.92 516.774 1020.55 517.059C1020.19 517.341 1019.93 517.654 1019.79 517.999L1018 517.59C1018.21 516.993 1018.52 516.512 1018.93 516.146C1019.34 515.775 1019.82 515.507 1020.35 515.341C1020.89 515.171 1021.45 515.085 1022.05 515.085C1022.44 515.085 1022.85 515.132 1023.29 515.226C1023.74 515.315 1024.15 515.481 1024.53 515.724C1024.92 515.967 1025.24 516.314 1025.48 516.766C1025.73 517.213 1025.85 517.794 1025.85 518.51V525.026H1023.99V523.684H1023.91C1023.79 523.931 1023.6 524.174 1023.36 524.413C1023.11 524.651 1022.79 524.849 1022.4 525.007C1022.02 525.164 1021.55 525.243 1021.01 525.243ZM1021.43 523.71C1021.96 523.71 1022.41 523.606 1022.78 523.397C1023.16 523.188 1023.45 522.916 1023.64 522.579C1023.84 522.238 1023.94 521.874 1023.94 521.487V520.222C1023.88 520.29 1023.74 520.354 1023.55 520.413C1023.36 520.469 1023.14 520.518 1022.89 520.56C1022.64 520.599 1022.4 520.635 1022.17 520.669C1021.93 520.699 1021.74 520.724 1021.58 520.746C1021.21 520.792 1020.87 520.871 1020.56 520.982C1020.26 521.093 1020.02 521.252 1019.84 521.461C1019.66 521.666 1019.57 521.938 1019.57 522.279C1019.57 522.752 1019.74 523.109 1020.09 523.352C1020.44 523.591 1020.89 523.71 1021.43 523.71ZM1033.31 525.026V511.942H1037.98C1038.99 511.942 1039.83 512.117 1040.5 512.466C1041.17 512.815 1041.68 513.299 1042.01 513.916C1042.34 514.53 1042.51 515.239 1042.51 516.044C1042.51 516.844 1042.34 517.549 1042 518.158C1041.67 518.763 1041.17 519.234 1040.49 519.57C1039.83 519.907 1038.98 520.075 1037.97 520.075H1034.44V518.375H1037.79C1038.43 518.375 1038.95 518.284 1039.35 518.101C1039.75 517.918 1040.05 517.651 1040.24 517.302C1040.43 516.953 1040.52 516.533 1040.52 516.044C1040.52 515.55 1040.42 515.122 1040.23 514.76C1040.04 514.398 1039.75 514.121 1039.34 513.929C1038.94 513.733 1038.42 513.635 1037.77 513.635H1035.29V525.026H1033.31ZM1039.77 519.123L1043 525.026H1040.76L1037.59 519.123H1039.77ZM1048.77 525.224C1047.85 525.224 1047.04 525.013 1046.36 524.592C1045.67 524.17 1045.14 523.58 1044.76 522.822C1044.38 522.064 1044.19 521.178 1044.19 520.164C1044.19 519.146 1044.38 518.256 1044.76 517.494C1045.14 516.731 1045.67 516.139 1046.36 515.718C1047.04 515.296 1047.85 515.085 1048.77 515.085C1049.69 515.085 1050.49 515.296 1051.17 515.718C1051.86 516.139 1052.39 516.731 1052.77 517.494C1053.15 518.256 1053.34 519.146 1053.34 520.164C1053.34 521.178 1053.15 522.064 1052.77 522.822C1052.39 523.58 1051.86 524.17 1051.17 524.592C1050.49 525.013 1049.69 525.224 1048.77 525.224ZM1048.77 523.621C1049.37 523.621 1049.86 523.463 1050.25 523.148C1050.65 522.833 1050.94 522.413 1051.12 521.889C1051.31 521.365 1051.41 520.788 1051.41 520.158C1051.41 519.532 1051.31 518.957 1051.12 518.433C1050.94 517.905 1050.65 517.481 1050.25 517.162C1049.86 516.842 1049.37 516.683 1048.77 516.683C1048.17 516.683 1047.67 516.842 1047.28 517.162C1046.89 517.481 1046.59 517.905 1046.4 518.433C1046.21 518.957 1046.12 519.532 1046.12 520.158C1046.12 520.788 1046.21 521.365 1046.4 521.889C1046.59 522.413 1046.89 522.833 1047.28 523.148C1047.67 523.463 1048.17 523.621 1048.77 523.621ZM1059.61 525.224C1058.66 525.224 1057.84 525.009 1057.15 524.579C1056.47 524.144 1055.95 523.546 1055.58 522.784C1055.21 522.021 1055.03 521.148 1055.03 520.164C1055.03 519.168 1055.22 518.288 1055.59 517.526C1055.97 516.759 1056.5 516.161 1057.18 515.731C1057.86 515.3 1058.66 515.085 1059.59 515.085C1060.33 515.085 1061 515.224 1061.58 515.501C1062.16 515.773 1062.63 516.157 1062.99 516.651C1063.35 517.145 1063.57 517.722 1063.64 518.382H1061.78C1061.68 517.922 1061.44 517.526 1061.07 517.194C1060.71 516.861 1060.23 516.695 1059.62 516.695C1059.09 516.695 1058.62 516.836 1058.22 517.117C1057.82 517.394 1057.51 517.79 1057.29 518.305C1057.07 518.816 1056.96 519.421 1056.96 520.12C1056.96 520.835 1057.07 521.453 1057.29 521.972C1057.5 522.492 1057.81 522.894 1058.21 523.18C1058.61 523.465 1059.08 523.608 1059.62 523.608C1059.98 523.608 1060.31 523.542 1060.6 523.41C1060.9 523.273 1061.15 523.08 1061.35 522.828C1061.55 522.577 1061.7 522.275 1061.78 521.921H1063.64C1063.57 522.556 1063.36 523.122 1063.02 523.621C1062.67 524.119 1062.21 524.511 1061.63 524.796C1061.06 525.081 1060.38 525.224 1059.61 525.224ZM1067.44 521.698L1067.42 519.366H1067.76L1071.67 515.213H1073.95L1069.49 519.941H1069.19L1067.44 521.698ZM1065.68 525.026V511.942H1067.59V525.026H1065.68ZM1071.88 525.026L1068.36 520.362L1069.68 519.027L1074.22 525.026H1071.88ZM1079.52 525.224C1078.55 525.224 1077.72 525.017 1077.02 524.604C1076.33 524.187 1075.79 523.601 1075.41 522.847C1075.04 522.089 1074.85 521.201 1074.85 520.183C1074.85 519.178 1075.04 518.292 1075.41 517.526C1075.79 516.759 1076.32 516.161 1077 515.731C1077.68 515.3 1078.47 515.085 1079.38 515.085C1079.94 515.085 1080.47 515.177 1080.99 515.36C1081.51 515.543 1081.98 515.831 1082.39 516.223C1082.81 516.614 1083.13 517.123 1083.37 517.749C1083.61 518.371 1083.73 519.127 1083.73 520.017V520.695H1075.93V519.263H1081.86C1081.86 518.761 1081.75 518.316 1081.55 517.928C1081.35 517.536 1081.06 517.228 1080.69 517.002C1080.32 516.776 1079.89 516.663 1079.4 516.663C1078.86 516.663 1078.39 516.795 1077.99 517.059C1077.6 517.319 1077.29 517.66 1077.07 518.082C1076.86 518.499 1076.75 518.953 1076.75 519.442V520.56C1076.75 521.216 1076.87 521.774 1077.1 522.234C1077.33 522.694 1077.66 523.046 1078.07 523.288C1078.49 523.527 1078.98 523.646 1079.54 523.646C1079.9 523.646 1080.23 523.595 1080.53 523.493C1080.83 523.386 1081.08 523.229 1081.3 523.02C1081.52 522.811 1081.68 522.554 1081.8 522.247L1083.61 522.573C1083.46 523.105 1083.2 523.572 1082.83 523.972C1082.46 524.368 1081.99 524.677 1081.43 524.898C1080.87 525.115 1080.23 525.224 1079.52 525.224ZM1090.43 515.213V516.746H1085.07V515.213H1090.43ZM1086.51 512.862H1088.42V522.145C1088.42 522.515 1088.47 522.794 1088.58 522.982C1088.69 523.165 1088.84 523.29 1089.01 523.359C1089.19 523.422 1089.38 523.454 1089.59 523.454C1089.75 523.454 1089.88 523.444 1089.99 523.422C1090.11 523.401 1090.2 523.384 1090.26 523.371L1090.61 524.949C1090.5 524.992 1090.34 525.035 1090.13 525.077C1089.93 525.124 1089.67 525.15 1089.37 525.154C1088.87 525.162 1088.4 525.073 1087.96 524.885C1087.53 524.698 1087.18 524.408 1086.91 524.017C1086.64 523.625 1086.51 523.133 1086.51 522.541V512.862ZM1099.74 517.609L1098.01 517.916C1097.93 517.694 1097.82 517.483 1097.66 517.283C1097.51 517.083 1097.3 516.919 1097.03 516.791C1096.77 516.663 1096.44 516.599 1096.04 516.599C1095.5 516.599 1095.05 516.721 1094.69 516.964C1094.33 517.202 1094.15 517.511 1094.15 517.89C1094.15 518.218 1094.27 518.482 1094.51 518.682C1094.75 518.882 1095.15 519.046 1095.69 519.174L1097.25 519.532C1098.15 519.741 1098.82 520.062 1099.26 520.496C1099.71 520.931 1099.93 521.495 1099.93 522.189C1099.93 522.777 1099.76 523.301 1099.42 523.761C1099.08 524.217 1098.61 524.575 1098.01 524.834C1097.4 525.094 1096.71 525.224 1095.92 525.224C1094.82 525.224 1093.92 524.99 1093.23 524.521C1092.53 524.049 1092.11 523.378 1091.95 522.509L1093.8 522.228C1093.91 522.709 1094.15 523.073 1094.5 523.32C1094.86 523.563 1095.33 523.684 1095.9 523.684C1096.53 523.684 1097.03 523.554 1097.4 523.295C1097.78 523.031 1097.97 522.709 1097.97 522.33C1097.97 522.023 1097.85 521.766 1097.62 521.557C1097.4 521.348 1097.05 521.191 1096.58 521.084L1094.92 520.72C1094 520.511 1093.33 520.179 1092.89 519.723C1092.45 519.268 1092.24 518.691 1092.24 517.992C1092.24 517.413 1092.4 516.906 1092.72 516.472C1093.05 516.037 1093.49 515.699 1094.06 515.456C1094.63 515.209 1095.29 515.085 1096.03 515.085C1097.09 515.085 1097.92 515.315 1098.53 515.775C1099.14 516.231 1099.54 516.842 1099.74 517.609ZM1106.26 525.224C1105.29 525.224 1104.46 525.017 1103.76 524.604C1103.07 524.187 1102.53 523.601 1102.15 522.847C1101.78 522.089 1101.59 521.201 1101.59 520.183C1101.59 519.178 1101.78 518.292 1102.15 517.526C1102.53 516.759 1103.06 516.161 1103.73 515.731C1104.42 515.3 1105.21 515.085 1106.12 515.085C1106.68 515.085 1107.21 515.177 1107.73 515.36C1108.25 515.543 1108.72 515.831 1109.13 516.223C1109.55 516.614 1109.87 517.123 1110.11 517.749C1110.35 518.371 1110.47 519.127 1110.47 520.017V520.695H1102.67V519.263H1108.6C1108.6 518.761 1108.49 518.316 1108.29 517.928C1108.09 517.536 1107.8 517.228 1107.43 517.002C1107.06 516.776 1106.63 516.663 1106.14 516.663C1105.6 516.663 1105.13 516.795 1104.73 517.059C1104.33 517.319 1104.03 517.66 1103.81 518.082C1103.6 518.499 1103.49 518.953 1103.49 519.442V520.56C1103.49 521.216 1103.61 521.774 1103.84 522.234C1104.07 522.694 1104.4 523.046 1104.81 523.288C1105.23 523.527 1105.72 523.646 1106.28 523.646C1106.64 523.646 1106.97 523.595 1107.27 523.493C1107.57 523.386 1107.82 523.229 1108.04 523.02C1108.26 522.811 1108.42 522.554 1108.54 522.247L1110.35 522.573C1110.2 523.105 1109.94 523.572 1109.57 523.972C1109.2 524.368 1108.73 524.677 1108.17 524.898C1107.61 525.115 1106.97 525.224 1106.26 525.224ZM1115.44 525.243C1114.82 525.243 1114.26 525.128 1113.76 524.898C1113.25 524.664 1112.86 524.325 1112.56 523.882C1112.27 523.44 1112.13 522.896 1112.13 522.253C1112.13 521.7 1112.23 521.244 1112.45 520.886C1112.66 520.528 1112.95 520.245 1113.31 520.037C1113.67 519.828 1114.08 519.67 1114.52 519.564C1114.97 519.457 1115.43 519.376 1115.89 519.321C1116.48 519.253 1116.96 519.197 1117.32 519.155C1117.69 519.108 1117.95 519.034 1118.12 518.931C1118.29 518.829 1118.37 518.663 1118.37 518.433V518.388C1118.37 517.83 1118.21 517.398 1117.9 517.091C1117.59 516.785 1117.12 516.631 1116.5 516.631C1115.86 516.631 1115.35 516.774 1114.98 517.059C1114.62 517.341 1114.36 517.654 1114.22 517.999L1112.43 517.59C1112.64 516.993 1112.95 516.512 1113.36 516.146C1113.77 515.775 1114.25 515.507 1114.79 515.341C1115.32 515.171 1115.89 515.085 1116.48 515.085C1116.87 515.085 1117.29 515.132 1117.72 515.226C1118.17 515.315 1118.58 515.481 1118.96 515.724C1119.35 515.967 1119.67 516.314 1119.92 516.766C1120.16 517.213 1120.29 517.794 1120.29 518.51V525.026H1118.42V523.684H1118.34C1118.22 523.931 1118.03 524.174 1117.79 524.413C1117.54 524.651 1117.22 524.849 1116.84 525.007C1116.45 525.164 1115.98 525.243 1115.44 525.243ZM1115.86 523.71C1116.39 523.71 1116.84 523.606 1117.21 523.397C1117.59 523.188 1117.88 522.916 1118.08 522.579C1118.28 522.238 1118.38 521.874 1118.38 521.487V520.222C1118.31 520.29 1118.18 520.354 1117.98 520.413C1117.79 520.469 1117.57 520.518 1117.32 520.56C1117.07 520.599 1116.83 520.635 1116.6 520.669C1116.37 520.699 1116.17 520.724 1116.01 520.746C1115.64 520.792 1115.3 520.871 1115 520.982C1114.69 521.093 1114.45 521.252 1114.27 521.461C1114.09 521.666 1114 521.938 1114 522.279C1114 522.752 1114.17 523.109 1114.52 523.352C1114.87 523.591 1115.32 523.71 1115.86 523.71ZM1127.41 515.213V516.746H1122.05V515.213H1127.41ZM1123.49 512.862H1125.4V522.145C1125.4 522.515 1125.45 522.794 1125.56 522.982C1125.67 523.165 1125.82 523.29 1125.99 523.359C1126.17 523.422 1126.36 523.454 1126.57 523.454C1126.73 523.454 1126.86 523.444 1126.98 523.422C1127.09 523.401 1127.18 523.384 1127.24 523.371L1127.59 524.949C1127.48 524.992 1127.32 525.035 1127.12 525.077C1126.91 525.124 1126.66 525.15 1126.35 525.154C1125.85 525.162 1125.38 525.073 1124.94 524.885C1124.51 524.698 1124.16 524.408 1123.89 524.017C1123.62 523.625 1123.49 523.133 1123.49 522.541V512.862Z" fill="#A1A1AA"/>
<path d="M1031.88 528.604H1128.23V529.83H1031.88V528.604Z" fill="#A1A1AA"/>
<a href="https://www.rocketseat.com.br/">
<rect fill="black" fill-opacity="0" x="153.058" y="1.10736" width="96.3591" height="21.7723"/>
</a>
<path d="M1220.77 193.231L1207.28 206.724" stroke="#A1A1AA" stroke-width="2.24878" stroke-linecap="round" stroke-linejoin="round"/>
<path d="M1220.77 206.724L1207.28 193.231" stroke="#A1A1AA" stroke-width="2.24878" stroke-linecap="round" stroke-linejoin="round"/>
</g>
<g clip-path="url(#clip2_142_1274)">
<rect x="995.603" y="30" width="260" height="80" rx="16" fill="#8257E5"/>
<path d="M1057.29 83.75H1044.12C1043.96 83.7521 1043.8 83.7224 1043.66 83.6627C1043.51 83.603 1043.38 83.5144 1043.26 83.4023C1043.15 83.2902 1043.06 83.1567 1043 83.0098C1042.94 82.8628 1042.91 82.7055 1042.92 82.5469V69.375C1042.92 65.5625 1044.43 61.9062 1047.13 59.2103C1049.82 56.5145 1053.48 55 1057.29 55C1059.18 55 1061.05 55.3718 1062.79 56.0942C1064.54 56.8166 1066.12 57.8755 1067.46 59.2103C1068.79 60.5452 1069.85 62.1299 1070.57 63.8739C1071.3 65.618 1071.67 67.4872 1071.67 69.375C1071.67 71.2628 1071.3 73.132 1070.57 74.8761C1069.85 76.6201 1068.79 78.2048 1067.46 79.5397C1066.12 80.8745 1064.54 81.9334 1062.79 82.6558C1061.05 83.3782 1059.18 83.75 1057.29 83.75Z" stroke="white" stroke-width="2.5" stroke-linecap="round" stroke-linejoin="round"/>
<path d="M1059.09 70C1059.09 70.9924 1058.28 71.7969 1057.29 71.7969C1056.3 71.7969 1055.49 70.9924 1055.49 70C1055.49 69.0076 1056.3 68.2031 1057.29 68.2031C1058.28 68.2031 1059.09 69.0076 1059.09 70Z" fill="white" stroke="white" stroke-width="0.15625"/>
<path d="M1051.59 70C1051.59 70.9924 1050.78 71.7969 1049.79 71.7969C1048.8 71.7969 1047.99 70.9924 1047.99 70C1047.99 69.0076 1048.8 68.2031 1049.79 68.2031C1050.78 68.2031 1051.59 69.0076 1051.59 70Z" fill="white" stroke="white" stroke-width="0.15625"/>
<path d="M1066.59 70C1066.59 70.9924 1065.78 71.7969 1064.79 71.7969C1063.8 71.7969 1062.99 70.9924 1062.99 70C1062.99 69.0076 1063.8 68.2031 1064.79 68.2031C1065.78 68.2031 1066.59 69.0076 1066.59 70Z" fill="white" stroke="white" stroke-width="0.15625"/>
<path d="M1092.13 80V60.6061H1104.16V63.125H1095.06V69.0341H1103.3V71.5436H1095.06V80H1092.13ZM1112.73 80.2936C1111.3 80.2936 1110.06 79.9874 1109.03 79.375C1108 78.7563 1107.2 77.8883 1106.64 76.7708C1106.09 75.6471 1105.81 74.3308 1105.81 72.822C1105.81 71.3321 1106.09 70.0189 1106.64 68.8826C1107.2 67.7462 1107.99 66.8592 1108.99 66.2216C1110 65.584 1111.18 65.2652 1112.53 65.2652C1113.35 65.2652 1114.15 65.4009 1114.92 65.6723C1115.69 65.9438 1116.38 66.3699 1116.99 66.9508C1117.6 67.5316 1118.09 68.286 1118.44 69.214C1118.79 70.1357 1118.97 71.2563 1118.97 72.5758V73.5795H1107.41V71.4583H1116.2C1116.2 70.7134 1116.04 70.0537 1115.74 69.4792C1115.44 68.8984 1115.01 68.4407 1114.46 68.1061C1113.92 67.7715 1113.28 67.6042 1112.55 67.6042C1111.75 67.6042 1111.06 67.7999 1110.47 68.1913C1109.88 68.5764 1109.42 69.0814 1109.1 69.7064C1108.79 70.3251 1108.63 70.9975 1108.63 71.7235V73.3807C1108.63 74.3529 1108.8 75.1799 1109.14 75.8617C1109.49 76.5436 1109.97 77.0644 1110.59 77.4242C1111.21 77.7778 1111.93 77.9545 1112.76 77.9545C1113.29 77.9545 1113.78 77.8788 1114.23 77.7273C1114.67 77.5694 1115.05 77.3359 1115.37 77.0265C1115.69 76.7172 1115.94 76.3352 1116.11 75.8807L1118.79 76.3636C1118.58 77.1528 1118.19 77.8441 1117.63 78.4375C1117.09 79.0246 1116.39 79.4823 1115.56 79.8106C1114.73 80.1326 1113.79 80.2936 1112.73 80.2936ZM1128.38 80.2936C1126.95 80.2936 1125.71 79.9874 1124.68 79.375C1123.65 78.7563 1122.85 77.8883 1122.29 76.7708C1121.74 75.6471 1121.46 74.3308 1121.46 72.822C1121.46 71.3321 1121.74 70.0189 1122.29 68.8826C1122.85 67.7462 1123.64 66.8592 1124.64 66.2216C1125.65 65.584 1126.83 65.2652 1128.18 65.2652C1129 65.2652 1129.8 65.4009 1130.57 65.6723C1131.34 65.9438 1132.03 66.3699 1132.64 66.9508C1133.25 67.5316 1133.74 68.286 1134.09 69.214C1134.44 70.1357 1134.62 71.2563 1134.62 72.5758V73.5795H1123.06V71.4583H1131.85C1131.85 70.7134 1131.7 70.0537 1131.39 69.4792C1131.09 68.8984 1130.66 68.4407 1130.11 68.1061C1129.57 67.7715 1128.93 67.6042 1128.2 67.6042C1127.41 67.6042 1126.71 67.7999 1126.12 68.1913C1125.53 68.5764 1125.08 69.0814 1124.75 69.7064C1124.44 70.3251 1124.28 70.9975 1124.28 71.7235V73.3807C1124.28 74.3529 1124.45 75.1799 1124.79 75.8617C1125.14 76.5436 1125.62 77.0644 1126.24 77.4242C1126.86 77.7778 1127.58 77.9545 1128.41 77.9545C1128.95 77.9545 1129.43 77.8788 1129.88 77.7273C1130.32 77.5694 1130.7 77.3359 1131.02 77.0265C1131.34 76.7172 1131.59 76.3352 1131.76 75.8807L1134.44 76.3636C1134.23 77.1528 1133.84 77.8441 1133.29 78.4375C1132.74 79.0246 1132.05 79.4823 1131.21 79.8106C1130.39 80.1326 1129.44 80.2936 1128.38 80.2936ZM1143.21 80.2841C1142.03 80.2841 1140.99 79.9842 1140.06 79.3845C1139.15 78.7784 1138.43 77.9167 1137.9 76.7992C1137.39 75.6755 1137.13 74.3277 1137.13 72.7557C1137.13 71.1837 1137.39 69.839 1137.91 68.7216C1138.44 67.6042 1139.17 66.7487 1140.09 66.1553C1141.01 65.5619 1142.06 65.2652 1143.23 65.2652C1144.13 65.2652 1144.86 65.4167 1145.4 65.7197C1145.96 66.0164 1146.39 66.3636 1146.69 66.7614C1147 67.1591 1147.24 67.5095 1147.41 67.8125H1147.58V60.6061H1150.41V80H1147.65V77.7367H1147.41C1147.24 78.0461 1147 78.3996 1146.67 78.7973C1146.36 79.1951 1145.92 79.5423 1145.37 79.839C1144.81 80.1357 1144.09 80.2841 1143.21 80.2841ZM1143.83 77.8693C1144.65 77.8693 1145.34 77.6547 1145.9 77.2254C1146.47 76.7898 1146.89 76.1869 1147.19 75.4167C1147.48 74.6465 1147.63 73.75 1147.63 72.7273C1147.63 71.7172 1147.49 70.8333 1147.19 70.0758C1146.9 69.3182 1146.48 68.7279 1145.92 68.3049C1145.35 67.8819 1144.66 67.6705 1143.83 67.6705C1142.98 67.6705 1142.27 67.8914 1141.7 68.3333C1141.13 68.7753 1140.7 69.3782 1140.41 70.142C1140.13 70.9059 1139.99 71.7677 1139.99 72.7273C1139.99 73.6995 1140.13 74.5739 1140.42 75.3504C1140.71 76.1269 1141.14 76.7424 1141.71 77.197C1142.29 77.6452 1142.99 77.8693 1143.83 77.8693ZM1154.68 80V60.6061H1157.51V67.8125H1157.68C1157.85 67.5095 1158.09 67.1591 1158.39 66.7614C1158.7 66.3636 1159.13 66.0164 1159.68 65.7197C1160.23 65.4167 1160.96 65.2652 1161.86 65.2652C1163.04 65.2652 1164.08 65.5619 1165 66.1553C1165.93 66.7487 1166.65 67.6042 1167.17 68.7216C1167.7 69.839 1167.97 71.1837 1167.97 72.7557C1167.97 74.3277 1167.71 75.6755 1167.18 76.7992C1166.66 77.9167 1165.94 78.7784 1165.02 79.3845C1164.11 79.9842 1163.06 80.2841 1161.89 80.2841C1161.01 80.2841 1160.28 80.1357 1159.72 79.839C1159.17 79.5423 1158.73 79.1951 1158.41 78.7973C1158.1 78.3996 1157.86 78.0461 1157.68 77.7367H1157.45V80H1154.68ZM1157.46 72.7273C1157.46 73.75 1157.61 74.6465 1157.9 75.4167C1158.2 76.1869 1158.63 76.7898 1159.19 77.2254C1159.75 77.6547 1160.44 77.8693 1161.25 77.8693C1162.1 77.8693 1162.81 77.6452 1163.38 77.197C1163.94 76.7424 1164.37 76.1269 1164.66 75.3504C1164.96 74.5739 1165.11 73.6995 1165.11 72.7273C1165.11 71.7677 1164.96 70.9059 1164.67 70.142C1164.39 69.3782 1163.96 68.7753 1163.39 68.3333C1162.82 67.8914 1162.11 67.6705 1161.25 67.6705C1160.43 67.6705 1159.74 67.8819 1159.17 68.3049C1158.61 68.7279 1158.18 69.3182 1157.89 70.0758C1157.6 70.8333 1157.46 71.7172 1157.46 72.7273ZM1175.38 80.322C1174.46 80.322 1173.63 80.1515 1172.88 79.8106C1172.14 79.4634 1171.55 78.9615 1171.11 78.3049C1170.68 77.6484 1170.47 76.8434 1170.47 75.8902C1170.47 75.0694 1170.62 74.3939 1170.94 73.8636C1171.26 73.3333 1171.68 72.9135 1172.22 72.6042C1172.75 72.2948 1173.35 72.0612 1174.02 71.9034C1174.68 71.7456 1175.36 71.6256 1176.04 71.5436C1176.92 71.4426 1177.62 71.3605 1178.17 71.2973C1178.71 71.2279 1179.1 71.1174 1179.35 70.9659C1179.6 70.8144 1179.72 70.5682 1179.72 70.2273V70.161C1179.72 69.334 1179.48 68.6932 1179.02 68.2386C1178.56 67.7841 1177.87 67.5568 1176.95 67.5568C1176 67.5568 1175.25 67.7683 1174.7 68.1913C1174.16 68.608 1173.78 69.072 1173.57 69.5833L1170.91 68.9773C1171.23 68.0934 1171.69 67.3801 1172.29 66.8371C1172.91 66.2879 1173.61 65.8902 1174.41 65.6439C1175.2 65.3914 1176.04 65.2652 1176.92 65.2652C1177.5 65.2652 1178.11 65.3346 1178.76 65.4735C1179.42 65.6061 1180.03 65.8523 1180.6 66.2121C1181.17 66.572 1181.64 67.0865 1182.01 67.7557C1182.38 68.4186 1182.56 69.2803 1182.56 70.3409V80H1179.79V78.0114H1179.68C1179.5 78.3775 1179.22 78.7374 1178.86 79.0909C1178.49 79.4444 1178.02 79.738 1177.45 79.9716C1176.87 80.2052 1176.18 80.322 1175.38 80.322ZM1176 78.0492C1176.78 78.0492 1177.45 77.8946 1178 77.5852C1178.57 77.2759 1178.99 76.8718 1179.28 76.3731C1179.58 75.8681 1179.73 75.3283 1179.73 74.7538V72.8788C1179.63 72.9798 1179.43 73.0745 1179.14 73.1629C1178.86 73.2449 1178.53 73.3176 1178.17 73.3807C1177.8 73.4375 1177.44 73.4912 1177.1 73.5417C1176.75 73.5859 1176.46 73.6237 1176.22 73.6553C1175.67 73.7247 1175.17 73.8415 1174.72 74.0057C1174.27 74.1698 1173.91 74.4066 1173.64 74.7159C1173.37 75.0189 1173.24 75.423 1173.24 75.928C1173.24 76.6288 1173.5 77.1591 1174.02 77.5189C1174.54 77.8725 1175.19 78.0492 1176 78.0492ZM1192.46 80.2936C1191.05 80.2936 1189.84 79.9747 1188.82 79.3371C1187.81 78.6932 1187.03 77.8062 1186.49 76.6761C1185.95 75.5461 1185.68 74.2519 1185.68 72.7936C1185.68 71.3163 1185.95 70.0126 1186.51 68.8826C1187.07 67.7462 1187.85 66.8592 1188.86 66.2216C1189.87 65.584 1191.06 65.2652 1192.43 65.2652C1193.53 65.2652 1194.52 65.4703 1195.38 65.8807C1196.25 66.2847 1196.95 66.8529 1197.48 67.5852C1198.01 68.3176 1198.33 69.173 1198.43 70.1515H1195.68C1195.53 69.4697 1195.18 68.8826 1194.64 68.3902C1194.1 67.8977 1193.38 67.6515 1192.48 67.6515C1191.69 67.6515 1191 67.8598 1190.4 68.2765C1189.82 68.6869 1189.36 69.274 1189.03 70.0379C1188.7 70.7955 1188.54 71.6919 1188.54 72.7273C1188.54 73.7879 1188.7 74.7033 1189.02 75.4735C1189.34 76.2437 1189.8 76.8403 1190.38 77.2633C1190.98 77.6862 1191.67 77.8977 1192.48 77.8977C1193.01 77.8977 1193.5 77.7999 1193.93 77.6042C1194.38 77.4021 1194.75 77.1149 1195.04 76.7424C1195.35 76.3699 1195.56 75.9217 1195.68 75.3977H1198.43C1198.33 76.3384 1198.03 77.178 1197.51 77.9167C1197 78.6553 1196.32 79.2361 1195.46 79.6591C1194.61 80.0821 1193.61 80.2936 1192.46 80.2936ZM1204.06 75.0663L1204.05 71.6098H1204.54L1210.33 65.4545H1213.72L1207.11 72.4621H1206.67L1204.06 75.0663ZM1201.46 80V60.6061H1204.29V80H1201.46ZM1210.65 80L1205.44 73.0871L1207.39 71.108L1214.12 80H1210.65Z" fill="white"/>
</g>
</g>
<defs>
<filter id="filter0_b_142_1274" x="-8" y="-8" width="1456" height="916" filterUnits="userSpaceOnUse" color-interpolation-filters="sRGB">
<feFlood flood-opacity="0" result="BackgroundImageFix"/>
<feGaussianBlur in="BackgroundImage" stdDeviation="4"/>
<feComposite in2="SourceAlpha" operator="in" result="effect1_backgroundBlur_142_1274"/>
<feBlend mode="normal" in="SourceGraphic" in2="effect1_backgroundBlur_142_1274" result="shape"/>
</filter>
<filter id="filter1_d_142_1274" x="720" y="134" width="567.727" height="459.786" filterUnits="userSpaceOnUse" color-interpolation-filters="sRGB">
<feFlood flood-opacity="0" result="BackgroundImageFix"/>
<feColorMatrix in="SourceAlpha" type="matrix" values="0 0 0 0 0 0 0 0 0 0 0 0 0 0 0 0 0 0 127 0" result="hardAlpha"/>
<feOffset dy="8"/>
<feGaussianBlur stdDeviation="16"/>
<feComposite in2="hardAlpha" operator="out"/>
<feColorMatrix type="matrix" values="0 0 0 0 0 0 0 0 0 0 0 0 0 0 0 0 0 0 0.15 0"/>
<feBlend mode="normal" in2="BackgroundImageFix" result="effect1_dropShadow_142_1274"/>
<feBlend mode="normal" in="SourceGraphic" in2="effect1_dropShadow_142_1274" result="shape"/>
</filter>
<clipPath id="clip0_142_1274">
<rect width="1440" height="900" fill="white"/>
</clipPath>
<clipPath id="clip1_142_1274">
<rect width="456.026" height="167.909" fill="white" transform="translate(775.987 266.049)"/>
</clipPath>
<clipPath id="clip2_142_1274">
<rect width="260" height="80" fill="white" transform="translate(996 30)"/>
</clipPath>
</defs>
</svg>
